<svg width="1194" height="600" viewBox="0 0 1194 600" fill="none" xmlns="http://www.w3.org/2000/svg">
<rect x="111" width="886" height="150" rx="75" fill="#5800FF"/>
<path d="M250.352 104L233.42 45.8182H248.96L257.739 83.9432H258.222L268.25 45.8182H280.92L290.949 84.0284H291.432L300.239 45.8182H315.75L298.847 104H285.295L274.812 68.7159H274.358L263.875 104H250.352ZM337.114 104.824C332.549 104.824 328.61 103.924 325.295 102.125C322 100.307 319.462 97.7216 317.682 94.3693C315.92 90.9981 315.04 86.9924 315.04 82.3523C315.04 77.8447 315.93 73.9053 317.71 70.5341C319.491 67.1439 322 64.5114 325.239 62.6364C328.477 60.7424 332.294 59.7955 336.688 59.7955C339.794 59.7955 342.634 60.2784 345.21 61.2443C347.786 62.2102 350.011 63.6402 351.886 65.5341C353.761 67.428 355.22 69.767 356.261 72.5511C357.303 75.3163 357.824 78.4886 357.824 82.0682V85.5341H319.898V77.4659H344.898C344.879 75.9886 344.528 74.6723 343.847 73.517C343.165 72.3617 342.227 71.4621 341.034 70.8182C339.86 70.1553 338.506 69.8239 336.972 69.8239C335.419 69.8239 334.027 70.1742 332.795 70.875C331.564 71.5568 330.589 72.4943 329.869 73.6875C329.15 74.8617 328.771 76.197 328.733 77.6932V85.9034C328.733 87.6837 329.083 89.2462 329.784 90.5909C330.485 91.9167 331.479 92.9489 332.767 93.6875C334.055 94.4261 335.589 94.7955 337.369 94.7955C338.6 94.7955 339.718 94.625 340.722 94.2841C341.725 93.9432 342.587 93.4413 343.307 92.7784C344.027 92.1155 344.566 91.3011 344.926 90.3352L357.682 90.7045C357.152 93.5644 355.987 96.0549 354.188 98.1761C352.407 100.278 350.068 101.917 347.17 103.091C344.273 104.246 340.92 104.824 337.114 104.824ZM382.107 104V45.8182H395.999V67.8352H396.283C396.851 66.5095 397.656 65.2311 398.697 64C399.758 62.7689 401.103 61.7652 402.732 60.9886C404.379 60.1932 406.349 59.7955 408.641 59.7955C411.671 59.7955 414.502 60.5909 417.135 62.1818C419.786 63.7727 421.927 66.2254 423.555 69.5398C425.184 72.8542 425.999 77.0777 425.999 82.2102C425.999 87.1534 425.213 91.2917 423.641 94.625C422.088 97.9583 419.985 100.458 417.334 102.125C414.701 103.792 411.775 104.625 408.555 104.625C406.358 104.625 404.455 104.265 402.845 103.545C401.235 102.826 399.881 101.879 398.783 100.705C397.703 99.5303 396.87 98.2708 396.283 96.9261H395.857V104H382.107ZM395.714 82.1818C395.714 84.5303 396.027 86.5758 396.652 88.3182C397.296 90.0606 398.214 91.4148 399.408 92.3807C400.62 93.3277 402.069 93.8011 403.754 93.8011C405.459 93.8011 406.908 93.3277 408.101 92.3807C409.294 91.4148 410.194 90.0606 410.8 88.3182C411.425 86.5758 411.737 84.5303 411.737 82.1818C411.737 79.8333 411.425 77.7973 410.8 76.0739C410.194 74.3504 409.294 73.0152 408.101 72.0682C406.927 71.1212 405.478 70.6477 403.754 70.6477C402.05 70.6477 400.601 71.1117 399.408 72.0398C398.214 72.9678 397.296 74.2936 396.652 76.017C396.027 77.7405 395.714 79.7955 395.714 82.1818ZM433.278 104V60.3636H446.773V68.3182H447.227C448.023 65.4394 449.32 63.2992 451.119 61.8977C452.919 60.4773 455.011 59.767 457.398 59.767C458.042 59.767 458.705 59.8144 459.386 59.9091C460.068 59.9848 460.703 60.108 461.29 60.2784V72.3523C460.627 72.125 459.756 71.9451 458.676 71.8125C457.616 71.6799 456.669 71.6136 455.835 71.6136C454.188 71.6136 452.701 71.983 451.375 72.7216C450.068 73.4413 449.036 74.4545 448.278 75.7614C447.54 77.0492 447.17 78.5644 447.17 80.3068V104H433.278ZM466.95 104V60.3636H480.842V104H466.95ZM473.911 55.2784C471.96 55.2784 470.284 54.6345 468.882 53.3466C467.481 52.0398 466.78 50.4678 466.78 48.6307C466.78 46.8125 467.481 45.2595 468.882 43.9716C470.284 42.6648 471.96 42.0114 473.911 42.0114C475.88 42.0114 477.556 42.6648 478.939 43.9716C480.34 45.2595 481.041 46.8125 481.041 48.6307C481.041 50.4678 480.34 52.0398 478.939 53.3466C477.556 54.6345 475.88 55.2784 473.911 55.2784ZM503.577 79.1136V104H489.685V60.3636H502.895V68.375H503.378C504.344 65.7045 505.991 63.6117 508.321 62.0966C510.651 60.5625 513.425 59.7955 516.645 59.7955C519.713 59.7955 522.374 60.4867 524.628 61.8693C526.901 63.233 528.662 65.1458 529.912 67.608C531.181 70.0511 531.806 72.911 531.787 76.1875V104H517.895V78.9148C517.914 76.4905 517.298 74.5966 516.048 73.233C514.817 71.8693 513.103 71.1875 510.906 71.1875C509.448 71.1875 508.16 71.5095 507.043 72.1534C505.944 72.7784 505.092 73.678 504.486 74.8523C503.899 76.0265 503.596 77.447 503.577 79.1136ZM560.729 121.273C556.581 121.273 553.03 120.695 550.075 119.54C547.121 118.384 544.801 116.803 543.115 114.795C541.429 112.788 540.416 110.515 540.075 107.977L553.229 107.239C553.475 108.129 553.929 108.905 554.592 109.568C555.274 110.231 556.155 110.742 557.234 111.102C558.333 111.462 559.621 111.642 561.098 111.642C563.428 111.642 565.35 111.074 566.865 109.938C568.399 108.82 569.166 106.86 569.166 104.057V96.3864H568.683C568.134 97.7311 567.301 98.9337 566.183 99.9943C565.066 101.055 563.674 101.888 562.007 102.494C560.359 103.1 558.465 103.403 556.325 103.403C553.143 103.403 550.227 102.665 547.575 101.188C544.943 99.6913 542.831 97.3807 541.24 94.2557C539.668 91.1117 538.882 87.0682 538.882 82.125C538.882 77.0303 539.696 72.8352 541.325 69.5398C542.954 66.2254 545.085 63.7727 547.717 62.1818C550.369 60.5909 553.219 59.7955 556.268 59.7955C558.56 59.7955 560.52 60.1932 562.149 60.9886C563.797 61.7652 565.151 62.7689 566.212 64C567.272 65.2311 568.077 66.5095 568.626 67.8352H569.024V60.3636H582.859V104.17C582.859 107.864 581.931 110.979 580.075 113.517C578.219 116.055 575.625 117.977 572.291 119.284C568.958 120.61 565.104 121.273 560.729 121.273ZM561.155 93.2898C562.84 93.2898 564.28 92.8447 565.473 91.9545C566.666 91.0644 567.585 89.786 568.229 88.1193C568.873 86.4527 569.195 84.4545 569.195 82.125C569.195 79.7576 568.873 77.7216 568.229 76.017C567.604 74.2936 566.685 72.9678 565.473 72.0398C564.28 71.1117 562.84 70.6477 561.155 70.6477C559.431 70.6477 557.973 71.1212 556.78 72.0682C555.587 73.0152 554.678 74.3504 554.053 76.0739C553.446 77.7784 553.143 79.7955 553.143 82.125C553.143 84.4545 553.456 86.4527 554.081 88.1193C554.706 89.786 555.606 91.0644 556.78 91.9545C557.973 92.8447 559.431 93.2898 561.155 93.2898ZM617.398 120.364C615.731 120.364 614.159 120.231 612.682 119.966C611.205 119.72 609.936 119.388 608.875 118.972L611.943 108.886C613.307 109.341 614.538 109.606 615.636 109.682C616.754 109.758 617.71 109.578 618.506 109.142C619.32 108.725 619.945 107.977 620.381 106.898L620.92 105.591L605.409 60.3636H619.955L627.994 91.5H628.449L636.602 60.3636H651.233L634.784 108.176C633.989 110.563 632.862 112.665 631.403 114.483C629.964 116.32 628.098 117.759 625.807 118.801C623.534 119.843 620.731 120.364 617.398 120.364ZM675.523 104.824C670.939 104.824 667 103.886 663.705 102.011C660.428 100.117 657.9 97.4848 656.119 94.1136C654.358 90.7235 653.477 86.7936 653.477 82.3239C653.477 77.8352 654.358 73.9053 656.119 70.5341C657.9 67.1439 660.428 64.5114 663.705 62.6364C667 60.7424 670.939 59.7955 675.523 59.7955C680.106 59.7955 684.036 60.7424 687.312 62.6364C690.608 64.5114 693.136 67.1439 694.898 70.5341C696.678 73.9053 697.568 77.8352 697.568 82.3239C697.568 86.7936 696.678 90.7235 694.898 94.1136C693.136 97.4848 690.608 100.117 687.312 102.011C684.036 103.886 680.106 104.824 675.523 104.824ZM675.608 94.3409C677.275 94.3409 678.686 93.8295 679.841 92.8068C680.996 91.7841 681.877 90.3636 682.483 88.5455C683.108 86.7273 683.42 84.625 683.42 82.2386C683.42 79.8144 683.108 77.6932 682.483 75.875C681.877 74.0568 680.996 72.6364 679.841 71.6136C678.686 70.5909 677.275 70.0795 675.608 70.0795C673.884 70.0795 672.426 70.5909 671.233 71.6136C670.059 72.6364 669.159 74.0568 668.534 75.875C667.928 77.6932 667.625 79.8144 667.625 82.2386C667.625 84.625 667.928 86.7273 668.534 88.5455C669.159 90.3636 670.059 91.7841 671.233 92.8068C672.426 93.8295 673.884 94.3409 675.608 94.3409ZM732.838 85.1648V60.3636H746.702V104H733.463V95.875H733.009C732.043 98.5455 730.395 100.667 728.065 102.239C725.755 103.792 722.961 104.568 719.685 104.568C716.711 104.568 714.098 103.886 711.844 102.523C709.59 101.159 707.838 99.2557 706.588 96.8125C705.338 94.3504 704.704 91.4716 704.685 88.1761V60.3636H718.577V85.4489C718.596 87.8163 719.221 89.6818 720.452 91.0455C721.683 92.4091 723.359 93.0909 725.48 93.0909C726.863 93.0909 728.103 92.7879 729.202 92.1818C730.319 91.5568 731.2 90.6572 731.844 89.483C732.507 88.2898 732.838 86.8504 732.838 85.1648Z" fill="white"/>
<circle cx="925.5" cy="74.5" r="55" stroke="white" stroke-width="15"/>
<rect x="285" y="450" width="823" height="150" rx="75" fill="#F8F988"/>
<path d="M462.5 501.239V489.818H511.676V501.239H494.034V548H480.17V501.239H462.5ZM532.614 548.824C528.049 548.824 524.11 547.924 520.795 546.125C517.5 544.307 514.962 541.722 513.182 538.369C511.42 534.998 510.54 530.992 510.54 526.352C510.54 521.845 511.43 517.905 513.21 514.534C514.991 511.144 517.5 508.511 520.739 506.636C523.977 504.742 527.794 503.795 532.188 503.795C535.294 503.795 538.134 504.278 540.71 505.244C543.286 506.21 545.511 507.64 547.386 509.534C549.261 511.428 550.72 513.767 551.761 516.551C552.803 519.316 553.324 522.489 553.324 526.068V529.534H515.398V521.466H540.398C540.379 519.989 540.028 518.672 539.347 517.517C538.665 516.362 537.727 515.462 536.534 514.818C535.36 514.155 534.006 513.824 532.472 513.824C530.919 513.824 529.527 514.174 528.295 514.875C527.064 515.557 526.089 516.494 525.369 517.688C524.65 518.862 524.271 520.197 524.233 521.693V529.903C524.233 531.684 524.583 533.246 525.284 534.591C525.985 535.917 526.979 536.949 528.267 537.688C529.555 538.426 531.089 538.795 532.869 538.795C534.1 538.795 535.218 538.625 536.222 538.284C537.225 537.943 538.087 537.441 538.807 536.778C539.527 536.116 540.066 535.301 540.426 534.335L553.182 534.705C552.652 537.564 551.487 540.055 549.688 542.176C547.907 544.278 545.568 545.917 542.67 547.091C539.773 548.246 536.42 548.824 532.614 548.824ZM580.788 548.824C576.186 548.824 572.237 547.877 568.942 545.983C565.665 544.089 563.146 541.456 561.385 538.085C559.624 534.695 558.743 530.775 558.743 526.324C558.743 521.854 559.624 517.934 561.385 514.562C563.165 511.172 565.694 508.53 568.97 506.636C572.266 504.742 576.196 503.795 580.76 503.795C584.794 503.795 588.307 504.525 591.3 505.983C594.311 507.441 596.66 509.506 598.345 512.176C600.05 514.828 600.949 517.943 601.044 521.523H588.061C587.796 519.288 587.038 517.536 585.788 516.267C584.557 514.998 582.947 514.364 580.959 514.364C579.349 514.364 577.938 514.818 576.726 515.727C575.514 516.617 574.567 517.943 573.885 519.705C573.222 521.447 572.891 523.606 572.891 526.182C572.891 528.758 573.222 530.936 573.885 532.716C574.567 534.477 575.514 535.812 576.726 536.722C577.938 537.612 579.349 538.057 580.959 538.057C582.247 538.057 583.383 537.782 584.368 537.233C585.372 536.684 586.196 535.879 586.839 534.818C587.483 533.739 587.891 532.432 588.061 530.898H601.044C600.911 534.496 600.012 537.64 598.345 540.33C596.697 543.019 594.377 545.112 591.385 546.608C588.411 548.085 584.879 548.824 580.788 548.824ZM622.045 523.114V548H608.153V489.818H621.591V512.375H622.074C623.059 509.686 624.669 507.583 626.903 506.068C629.157 504.553 631.913 503.795 635.17 503.795C638.239 503.795 640.909 504.477 643.182 505.841C645.455 507.186 647.216 509.089 648.466 511.551C649.735 514.013 650.36 516.892 650.341 520.188V548H636.449V522.915C636.468 520.491 635.862 518.597 634.631 517.233C633.4 515.869 631.667 515.188 629.432 515.188C627.973 515.188 626.686 515.509 625.568 516.153C624.47 516.778 623.608 517.678 622.983 518.852C622.377 520.027 622.064 521.447 622.045 523.114ZM672.905 523.114V548H659.013V504.364H672.223V512.375H672.706C673.672 509.705 675.32 507.612 677.649 506.097C679.979 504.562 682.753 503.795 685.973 503.795C689.041 503.795 691.702 504.487 693.956 505.869C696.229 507.233 697.99 509.146 699.24 511.608C700.509 514.051 701.134 516.911 701.115 520.188V548H687.223V522.915C687.242 520.491 686.626 518.597 685.376 517.233C684.145 515.869 682.431 515.188 680.234 515.188C678.776 515.188 677.488 515.509 676.371 516.153C675.272 516.778 674.42 517.678 673.814 518.852C673.227 520.027 672.924 521.447 672.905 523.114ZM730.085 548.824C725.502 548.824 721.563 547.886 718.267 546.011C714.991 544.117 712.462 541.485 710.682 538.114C708.92 534.723 708.04 530.794 708.04 526.324C708.04 521.835 708.92 517.905 710.682 514.534C712.462 511.144 714.991 508.511 718.267 506.636C721.563 504.742 725.502 503.795 730.085 503.795C734.669 503.795 738.598 504.742 741.875 506.636C745.17 508.511 747.699 511.144 749.46 514.534C751.241 517.905 752.131 521.835 752.131 526.324C752.131 530.794 751.241 534.723 749.46 538.114C747.699 541.485 745.17 544.117 741.875 546.011C738.598 547.886 734.669 548.824 730.085 548.824ZM730.17 538.341C731.837 538.341 733.248 537.83 734.403 536.807C735.559 535.784 736.439 534.364 737.045 532.545C737.67 530.727 737.983 528.625 737.983 526.239C737.983 523.814 737.67 521.693 737.045 519.875C736.439 518.057 735.559 516.636 734.403 515.614C733.248 514.591 731.837 514.08 730.17 514.08C728.447 514.08 726.989 514.591 725.795 515.614C724.621 516.636 723.722 518.057 723.097 519.875C722.491 521.693 722.188 523.814 722.188 526.239C722.188 528.625 722.491 530.727 723.097 532.545C723.722 534.364 724.621 535.784 725.795 536.807C726.989 537.83 728.447 538.341 730.17 538.341ZM773.139 489.818V548H759.247V489.818H773.139ZM802.351 548.824C797.768 548.824 793.828 547.886 790.533 546.011C787.256 544.117 784.728 541.485 782.947 538.114C781.186 534.723 780.305 530.794 780.305 526.324C780.305 521.835 781.186 517.905 782.947 514.534C784.728 511.144 787.256 508.511 790.533 506.636C793.828 504.742 797.768 503.795 802.351 503.795C806.934 503.795 810.864 504.742 814.141 506.636C817.436 508.511 819.964 511.144 821.726 514.534C823.506 517.905 824.396 521.835 824.396 526.324C824.396 530.794 823.506 534.723 821.726 538.114C819.964 541.485 817.436 544.117 814.141 546.011C810.864 547.886 806.934 548.824 802.351 548.824ZM802.436 538.341C804.103 538.341 805.514 537.83 806.669 536.807C807.824 535.784 808.705 534.364 809.311 532.545C809.936 530.727 810.249 528.625 810.249 526.239C810.249 523.814 809.936 521.693 809.311 519.875C808.705 518.057 807.824 516.636 806.669 515.614C805.514 514.591 804.103 514.08 802.436 514.08C800.713 514.08 799.254 514.591 798.061 515.614C796.887 516.636 795.987 518.057 795.362 519.875C794.756 521.693 794.453 523.814 794.453 526.239C794.453 528.625 794.756 530.727 795.362 532.545C795.987 534.364 796.887 535.784 798.061 536.807C799.254 537.83 800.713 538.341 802.436 538.341ZM851.854 565.273C847.706 565.273 844.155 564.695 841.2 563.54C838.246 562.384 835.926 560.803 834.24 558.795C832.554 556.788 831.541 554.515 831.2 551.977L844.354 551.239C844.6 552.129 845.054 552.905 845.717 553.568C846.399 554.231 847.28 554.742 848.359 555.102C849.458 555.462 850.746 555.642 852.223 555.642C854.553 555.642 856.475 555.074 857.99 553.938C859.524 552.82 860.291 550.86 860.291 548.057V540.386H859.808C859.259 541.731 858.426 542.934 857.308 543.994C856.191 545.055 854.799 545.888 853.132 546.494C851.484 547.1 849.59 547.403 847.45 547.403C844.268 547.403 841.352 546.665 838.7 545.188C836.068 543.691 833.956 541.381 832.365 538.256C830.793 535.112 830.007 531.068 830.007 526.125C830.007 521.03 830.821 516.835 832.45 513.54C834.079 510.225 836.21 507.773 838.842 506.182C841.494 504.591 844.344 503.795 847.393 503.795C849.685 503.795 851.645 504.193 853.274 504.989C854.922 505.765 856.276 506.769 857.337 508C858.397 509.231 859.202 510.509 859.751 511.835H860.149V504.364H873.984V548.17C873.984 551.864 873.056 554.979 871.2 557.517C869.344 560.055 866.75 561.977 863.416 563.284C860.083 564.61 856.229 565.273 851.854 565.273ZM852.28 537.29C853.965 537.29 855.405 536.845 856.598 535.955C857.791 535.064 858.71 533.786 859.354 532.119C859.998 530.453 860.32 528.455 860.32 526.125C860.32 523.758 859.998 521.722 859.354 520.017C858.729 518.294 857.81 516.968 856.598 516.04C855.405 515.112 853.965 514.648 852.28 514.648C850.556 514.648 849.098 515.121 847.905 516.068C846.712 517.015 845.803 518.35 845.178 520.074C844.571 521.778 844.268 523.795 844.268 526.125C844.268 528.455 844.581 530.453 845.206 532.119C845.831 533.786 846.731 535.064 847.905 535.955C849.098 536.845 850.556 537.29 852.28 537.29ZM891.335 564.364C889.669 564.364 888.097 564.231 886.619 563.966C885.142 563.72 883.873 563.388 882.812 562.972L885.881 552.886C887.244 553.341 888.475 553.606 889.574 553.682C890.691 553.758 891.648 553.578 892.443 553.142C893.258 552.725 893.883 551.977 894.318 550.898L894.858 549.591L879.347 504.364H893.892L901.932 535.5H902.386L910.54 504.364H925.17L908.722 552.176C907.926 554.563 906.799 556.665 905.341 558.483C903.902 560.32 902.036 561.759 899.744 562.801C897.472 563.843 894.669 564.364 891.335 564.364Z" fill="black"/>
<rect x="308" y="150" width="886" height="150" rx="75" fill="#72FFFF"/>
<path d="M606.222 204.364V214.591H578.693V204.364H606.222ZM584.46 193.909H598.352V234.278C598.352 235.131 598.485 235.822 598.75 236.352C599.034 236.864 599.441 237.233 599.972 237.46C600.502 237.669 601.136 237.773 601.875 237.773C602.405 237.773 602.964 237.725 603.551 237.631C604.157 237.517 604.612 237.422 604.915 237.347L607.017 247.375C606.354 247.564 605.417 247.801 604.205 248.085C603.011 248.369 601.581 248.549 599.915 248.625C596.657 248.777 593.864 248.398 591.534 247.489C589.223 246.561 587.453 245.121 586.222 243.17C585.009 241.22 584.422 238.767 584.46 235.812V193.909ZM628.139 223.114V248H614.247V189.818H627.685V212.375H628.168C629.152 209.686 630.762 207.583 632.997 206.068C635.251 204.553 638.007 203.795 641.264 203.795C644.332 203.795 647.003 204.477 649.276 205.841C651.548 207.186 653.31 209.089 654.56 211.551C655.829 214.013 656.454 216.892 656.435 220.188V248H642.543V222.915C642.562 220.491 641.955 218.597 640.724 217.233C639.493 215.869 637.76 215.188 635.526 215.188C634.067 215.188 632.779 215.509 631.662 216.153C630.563 216.778 629.702 217.678 629.077 218.852C628.471 220.027 628.158 221.447 628.139 223.114ZM685.504 248.824C680.94 248.824 677 247.924 673.686 246.125C670.391 244.307 667.853 241.722 666.072 238.369C664.311 234.998 663.43 230.992 663.43 226.352C663.43 221.845 664.321 217.905 666.101 214.534C667.881 211.144 670.391 208.511 673.629 206.636C676.868 204.742 680.684 203.795 685.078 203.795C688.184 203.795 691.025 204.278 693.601 205.244C696.177 206.21 698.402 207.64 700.277 209.534C702.152 211.428 703.61 213.767 704.652 216.551C705.694 219.316 706.214 222.489 706.214 226.068V229.534H668.288V221.466H693.288C693.269 219.989 692.919 218.672 692.237 217.517C691.555 216.362 690.618 215.462 689.425 214.818C688.25 214.155 686.896 213.824 685.362 213.824C683.809 213.824 682.417 214.174 681.186 214.875C679.955 215.557 678.98 216.494 678.26 217.688C677.54 218.862 677.161 220.197 677.124 221.693V229.903C677.124 231.684 677.474 233.246 678.175 234.591C678.875 235.917 679.87 236.949 681.158 237.688C682.446 238.426 683.98 238.795 685.76 238.795C686.991 238.795 688.108 238.625 689.112 238.284C690.116 237.943 690.978 237.441 691.697 236.778C692.417 236.116 692.957 235.301 693.317 234.335L706.072 234.705C705.542 237.564 704.377 240.055 702.578 242.176C700.798 244.278 698.459 245.917 695.561 247.091C692.663 248.246 689.311 248.824 685.504 248.824ZM730.497 248V204.364H743.707V212.375H744.19C745.099 209.723 746.634 207.631 748.793 206.097C750.952 204.562 753.527 203.795 756.52 203.795C759.55 203.795 762.145 204.572 764.304 206.125C766.463 207.678 767.836 209.761 768.423 212.375H768.878C769.692 209.78 771.283 207.706 773.651 206.153C776.018 204.581 778.812 203.795 782.031 203.795C786.16 203.795 789.512 205.121 792.088 207.773C794.664 210.405 795.952 214.023 795.952 218.625V248H782.06V221.807C782.06 219.629 781.501 217.972 780.384 216.835C779.266 215.68 777.817 215.102 776.037 215.102C774.124 215.102 772.618 215.727 771.52 216.977C770.44 218.208 769.901 219.866 769.901 221.949V248H756.548V221.665C756.548 219.638 755.999 218.038 754.901 216.864C753.802 215.689 752.353 215.102 750.554 215.102C749.342 215.102 748.272 215.396 747.344 215.983C746.416 216.551 745.687 217.366 745.156 218.426C744.645 219.487 744.389 220.737 744.389 222.176V248H730.497ZM824.929 248.824C820.346 248.824 816.406 247.886 813.111 246.011C809.834 244.117 807.306 241.485 805.526 238.114C803.764 234.723 802.884 230.794 802.884 226.324C802.884 221.835 803.764 217.905 805.526 214.534C807.306 211.144 809.834 208.511 813.111 206.636C816.406 204.742 820.346 203.795 824.929 203.795C829.512 203.795 833.442 204.742 836.719 206.636C840.014 208.511 842.543 211.144 844.304 214.534C846.084 217.905 846.974 221.835 846.974 226.324C846.974 230.794 846.084 234.723 844.304 238.114C842.543 241.485 840.014 244.117 836.719 246.011C833.442 247.886 829.512 248.824 824.929 248.824ZM825.014 238.341C826.681 238.341 828.092 237.83 829.247 236.807C830.402 235.784 831.283 234.364 831.889 232.545C832.514 230.727 832.827 228.625 832.827 226.239C832.827 223.814 832.514 221.693 831.889 219.875C831.283 218.057 830.402 216.636 829.247 215.614C828.092 214.591 826.681 214.08 825.014 214.08C823.291 214.08 821.832 214.591 820.639 215.614C819.465 216.636 818.565 218.057 817.94 219.875C817.334 221.693 817.031 223.814 817.031 226.239C817.031 228.625 817.334 230.727 817.94 232.545C818.565 234.364 819.465 235.784 820.639 236.807C821.832 237.83 823.291 238.341 825.014 238.341ZM892.188 217.688L879.432 218.028C879.299 217.119 878.939 216.314 878.352 215.614C877.765 214.894 876.998 214.335 876.051 213.938C875.123 213.521 874.044 213.312 872.812 213.312C871.203 213.312 869.83 213.634 868.693 214.278C867.576 214.922 867.027 215.794 867.045 216.892C867.027 217.744 867.367 218.483 868.068 219.108C868.788 219.733 870.066 220.235 871.903 220.614L880.312 222.205C884.669 223.038 887.907 224.42 890.028 226.352C892.169 228.284 893.248 230.841 893.267 234.023C893.248 237.015 892.358 239.619 890.597 241.835C888.854 244.051 886.468 245.775 883.438 247.006C880.407 248.218 876.941 248.824 873.04 248.824C866.809 248.824 861.894 247.545 858.295 244.989C854.716 242.413 852.67 238.966 852.159 234.648L865.881 234.307C866.184 235.898 866.97 237.11 868.239 237.943C869.508 238.777 871.127 239.193 873.097 239.193C874.877 239.193 876.326 238.862 877.443 238.199C878.561 237.536 879.129 236.655 879.148 235.557C879.129 234.572 878.693 233.786 877.841 233.199C876.989 232.593 875.653 232.119 873.835 231.778L866.222 230.33C861.847 229.534 858.589 228.066 856.449 225.926C854.309 223.767 853.248 221.021 853.267 217.688C853.248 214.771 854.025 212.28 855.597 210.216C857.169 208.133 859.403 206.542 862.301 205.443C865.199 204.345 868.617 203.795 872.557 203.795C878.466 203.795 883.125 205.036 886.534 207.517C889.943 209.979 891.828 213.369 892.188 217.688ZM924.737 204.364V214.591H897.209V204.364H924.737ZM902.976 193.909H916.868V234.278C916.868 235.131 917 235.822 917.266 236.352C917.55 236.864 917.957 237.233 918.487 237.46C919.018 237.669 919.652 237.773 920.391 237.773C920.921 237.773 921.48 237.725 922.067 237.631C922.673 237.517 923.127 237.422 923.43 237.347L925.533 247.375C924.87 247.564 923.932 247.801 922.72 248.085C921.527 248.369 920.097 248.549 918.43 248.625C915.173 248.777 912.379 248.398 910.05 247.489C907.739 246.561 905.968 245.121 904.737 243.17C903.525 241.22 902.938 238.767 902.976 235.812V193.909Z" fill="black"/>
<circle cx="391.5" cy="224.5" r="56" stroke="white" stroke-width="13"/>
<g filter="url(#filter0_diiiii_445_580)">
<circle cx="392" cy="225" r="40" fill="url(#paint0_linear_445_580)"/>
</g>
<rect y="300" width="632" height="150" rx="75" fill="#5800FF"/>
<path d="M76.9886 404H61.875L81.5057 345.818H100.227L119.858 404H104.744L91.0795 360.477H90.625L76.9886 404ZM74.9716 381.102H106.562V391.784H74.9716V381.102ZM139.325 404.625C136.106 404.625 133.179 403.792 130.547 402.125C127.914 400.458 125.812 397.958 124.24 394.625C122.668 391.292 121.882 387.153 121.882 382.21C121.882 377.078 122.696 372.854 124.325 369.54C125.954 366.225 128.085 363.773 130.717 362.182C133.369 360.591 136.219 359.795 139.268 359.795C141.56 359.795 143.52 360.193 145.149 360.989C146.778 361.765 148.123 362.769 149.183 364C150.244 365.231 151.049 366.509 151.598 367.835H151.882V345.818H165.774V404H152.024V396.926H151.598C151.011 398.271 150.178 399.53 149.098 400.705C148.018 401.879 146.664 402.826 145.036 403.545C143.426 404.265 141.522 404.625 139.325 404.625ZM144.155 393.801C145.84 393.801 147.28 393.328 148.473 392.381C149.666 391.415 150.585 390.061 151.229 388.318C151.873 386.576 152.195 384.53 152.195 382.182C152.195 379.795 151.873 377.741 151.229 376.017C150.604 374.294 149.685 372.968 148.473 372.04C147.28 371.112 145.84 370.648 144.155 370.648C142.431 370.648 140.973 371.121 139.78 372.068C138.587 373.015 137.678 374.35 137.053 376.074C136.446 377.797 136.143 379.833 136.143 382.182C136.143 384.53 136.456 386.576 137.081 388.318C137.706 390.061 138.606 391.415 139.78 392.381C140.973 393.328 142.431 393.801 144.155 393.801ZM216.889 360.364L201.918 404H186.009L171.065 360.364H185.696L193.736 390.42H194.19L202.259 360.364H216.889ZM233.345 404.739C230.561 404.739 228.089 404.275 225.93 403.347C223.79 402.4 222.095 400.979 220.845 399.085C219.614 397.172 218.999 394.777 218.999 391.898C218.999 389.473 219.425 387.428 220.277 385.761C221.129 384.095 222.304 382.741 223.8 381.699C225.296 380.657 227.019 379.871 228.97 379.341C230.921 378.792 233.004 378.422 235.22 378.233C237.701 378.006 239.699 377.769 241.214 377.523C242.73 377.258 243.828 376.888 244.51 376.415C245.211 375.922 245.561 375.231 245.561 374.341V374.199C245.561 372.741 245.059 371.614 244.055 370.818C243.052 370.023 241.697 369.625 239.993 369.625C238.156 369.625 236.679 370.023 235.561 370.818C234.444 371.614 233.733 372.712 233.43 374.114L220.618 373.659C220.997 371.008 221.972 368.64 223.544 366.557C225.135 364.455 227.313 362.807 230.078 361.614C232.862 360.402 236.205 359.795 240.107 359.795C242.891 359.795 245.457 360.127 247.805 360.79C250.154 361.434 252.199 362.381 253.942 363.631C255.684 364.862 257.029 366.377 257.976 368.176C258.942 369.975 259.425 372.03 259.425 374.341V404H246.357V397.92H246.016C245.239 399.398 244.245 400.648 243.033 401.67C241.839 402.693 240.429 403.46 238.8 403.972C237.19 404.483 235.372 404.739 233.345 404.739ZM237.635 395.648C239.131 395.648 240.476 395.345 241.669 394.739C242.881 394.133 243.847 393.299 244.567 392.239C245.286 391.159 245.646 389.909 245.646 388.489V384.341C245.249 384.549 244.766 384.739 244.197 384.909C243.648 385.08 243.042 385.241 242.379 385.392C241.716 385.544 241.035 385.676 240.334 385.79C239.633 385.903 238.961 386.008 238.317 386.102C237.01 386.311 235.893 386.633 234.964 387.068C234.055 387.504 233.355 388.072 232.862 388.773C232.389 389.455 232.152 390.269 232.152 391.216C232.152 392.655 232.663 393.754 233.686 394.511C234.728 395.269 236.044 395.648 237.635 395.648ZM281.811 379.114V404H267.919V360.364H281.129V368.375H281.612C282.578 365.705 284.226 363.612 286.555 362.097C288.885 360.562 291.66 359.795 294.879 359.795C297.947 359.795 300.608 360.487 302.862 361.869C305.135 363.233 306.896 365.146 308.146 367.608C309.415 370.051 310.04 372.911 310.021 376.188V404H296.129V378.915C296.148 376.491 295.533 374.597 294.283 373.233C293.052 371.869 291.338 371.188 289.141 371.188C287.682 371.188 286.394 371.509 285.277 372.153C284.179 372.778 283.326 373.678 282.72 374.852C282.133 376.027 281.83 377.447 281.811 379.114ZM338.991 404.824C334.389 404.824 330.44 403.877 327.145 401.983C323.868 400.089 321.349 397.456 319.588 394.085C317.827 390.695 316.946 386.775 316.946 382.324C316.946 377.854 317.827 373.934 319.588 370.562C321.368 367.172 323.897 364.53 327.173 362.636C330.469 360.742 334.399 359.795 338.963 359.795C342.997 359.795 346.51 360.525 349.503 361.983C352.514 363.441 354.863 365.506 356.548 368.176C358.253 370.828 359.152 373.943 359.247 377.523H346.264C345.999 375.288 345.241 373.536 343.991 372.267C342.76 370.998 341.151 370.364 339.162 370.364C337.552 370.364 336.141 370.818 334.929 371.727C333.717 372.617 332.77 373.943 332.088 375.705C331.425 377.447 331.094 379.606 331.094 382.182C331.094 384.758 331.425 386.936 332.088 388.716C332.77 390.477 333.717 391.812 334.929 392.722C336.141 393.612 337.552 394.057 339.162 394.057C340.45 394.057 341.586 393.782 342.571 393.233C343.575 392.684 344.399 391.879 345.043 390.818C345.687 389.739 346.094 388.432 346.264 386.898H359.247C359.115 390.496 358.215 393.64 356.548 396.33C354.901 399.019 352.58 401.112 349.588 402.608C346.615 404.085 343.082 404.824 338.991 404.824ZM386.754 404.824C382.19 404.824 378.25 403.924 374.936 402.125C371.641 400.307 369.103 397.722 367.322 394.369C365.561 390.998 364.68 386.992 364.68 382.352C364.68 377.845 365.571 373.905 367.351 370.534C369.131 367.144 371.641 364.511 374.879 362.636C378.118 360.742 381.934 359.795 386.328 359.795C389.434 359.795 392.275 360.278 394.851 361.244C397.427 362.21 399.652 363.64 401.527 365.534C403.402 367.428 404.86 369.767 405.902 372.551C406.944 375.316 407.464 378.489 407.464 382.068V385.534H369.538V377.466H394.538C394.519 375.989 394.169 374.672 393.487 373.517C392.805 372.362 391.868 371.462 390.675 370.818C389.5 370.155 388.146 369.824 386.612 369.824C385.059 369.824 383.667 370.174 382.436 370.875C381.205 371.557 380.23 372.494 379.51 373.688C378.79 374.862 378.411 376.197 378.374 377.693V385.903C378.374 387.684 378.724 389.246 379.425 390.591C380.125 391.917 381.12 392.949 382.408 393.688C383.696 394.426 385.23 394.795 387.01 394.795C388.241 394.795 389.358 394.625 390.362 394.284C391.366 393.943 392.228 393.441 392.947 392.778C393.667 392.116 394.207 391.301 394.567 390.335L407.322 390.705C406.792 393.564 405.627 396.055 403.828 398.176C402.048 400.278 399.709 401.917 396.811 403.091C393.913 404.246 390.561 404.824 386.754 404.824Z" fill="white"/>
<rect x="480.5" y="302.5" width="418" height="145" rx="72.5" fill="white" stroke="#5800FF" stroke-width="5"/>
<rect x="545" y="330" width="289" height="89" rx="44.5" fill="#FF9551"/>
<circle cx="610.5" cy="372.5" r="27" stroke="white" stroke-width="9"/>
<path d="M658.651 386V364.182H667.749C669.383 364.182 670.75 364.413 671.851 364.874C672.959 365.336 673.79 365.982 674.344 366.813C674.905 367.644 675.185 368.607 675.185 369.7C675.185 370.531 675.011 371.273 674.663 371.927C674.315 372.573 673.836 373.109 673.225 373.536C672.614 373.962 671.908 374.26 671.105 374.43V374.643C671.986 374.686 672.799 374.924 673.545 375.357C674.298 375.79 674.901 376.394 675.356 377.168C675.81 377.935 676.038 378.844 676.038 379.896C676.038 381.067 675.739 382.115 675.143 383.038C674.546 383.955 673.683 384.679 672.554 385.212C671.425 385.737 670.054 386 668.442 386H658.651ZM663.925 381.749H667.185C668.328 381.749 669.17 381.533 669.71 381.099C670.256 380.666 670.53 380.062 670.53 379.288C670.53 378.727 670.398 378.244 670.136 377.839C669.873 377.428 669.5 377.112 669.017 376.891C668.534 376.664 667.955 376.55 667.281 376.55H663.925V381.749ZM663.925 373.152H666.844C667.419 373.152 667.93 373.056 668.378 372.864C668.825 372.673 669.173 372.396 669.422 372.033C669.678 371.671 669.805 371.234 669.805 370.723C669.805 369.991 669.546 369.416 669.028 368.997C668.509 368.578 667.81 368.369 666.929 368.369H663.925V373.152ZM686.222 386.309C684.511 386.309 683.033 385.972 681.79 385.297C680.555 384.615 679.603 383.646 678.935 382.388C678.275 381.124 677.945 379.622 677.945 377.882C677.945 376.192 678.278 374.714 678.946 373.45C679.614 372.179 680.555 371.192 681.769 370.489C682.984 369.778 684.415 369.423 686.062 369.423C687.227 369.423 688.293 369.604 689.259 369.967C690.224 370.329 691.059 370.865 691.762 371.575C692.465 372.286 693.012 373.163 693.403 374.207C693.793 375.244 693.989 376.433 693.989 377.776V379.075H679.766V376.05H689.141C689.134 375.496 689.003 375.002 688.747 374.569C688.491 374.136 688.14 373.798 687.692 373.557C687.252 373.308 686.744 373.184 686.169 373.184C685.587 373.184 685.065 373.315 684.603 373.578C684.141 373.834 683.776 374.185 683.506 374.633C683.236 375.073 683.094 375.574 683.08 376.135V379.214C683.08 379.881 683.211 380.467 683.474 380.972C683.737 381.469 684.109 381.856 684.592 382.133C685.075 382.41 685.651 382.548 686.318 382.548C686.78 382.548 687.199 382.484 687.575 382.357C687.952 382.229 688.275 382.04 688.545 381.792C688.815 381.543 689.017 381.238 689.152 380.876L693.935 381.014C693.737 382.087 693.3 383.021 692.625 383.816C691.957 384.604 691.08 385.219 689.994 385.659C688.907 386.092 687.65 386.309 686.222 386.309ZM701.859 364.182V386H696.649V364.182H701.859ZM705.175 386V369.636H710.384V386H705.175ZM707.785 367.729C707.053 367.729 706.425 367.488 705.899 367.005C705.374 366.515 705.111 365.925 705.111 365.237C705.111 364.555 705.374 363.972 705.899 363.489C706.425 362.999 707.053 362.754 707.785 362.754C708.523 362.754 709.152 362.999 709.67 363.489C710.196 363.972 710.459 364.555 710.459 365.237C710.459 365.925 710.196 366.515 709.67 367.005C709.152 367.488 708.523 367.729 707.785 367.729ZM721.349 386.309C719.638 386.309 718.16 385.972 716.917 385.297C715.682 384.615 714.73 383.646 714.062 382.388C713.402 381.124 713.072 379.622 713.072 377.882C713.072 376.192 713.405 374.714 714.073 373.45C714.741 372.179 715.682 371.192 716.896 370.489C718.111 369.778 719.542 369.423 721.189 369.423C722.354 369.423 723.42 369.604 724.385 369.967C725.351 370.329 726.186 370.865 726.889 371.575C727.592 372.286 728.139 373.163 728.53 374.207C728.92 375.244 729.116 376.433 729.116 377.776V379.075H714.893V376.05H724.268C724.261 375.496 724.13 375.002 723.874 374.569C723.618 374.136 723.267 373.798 722.819 373.557C722.379 373.308 721.871 373.184 721.296 373.184C720.714 373.184 720.192 373.315 719.73 373.578C719.268 373.834 718.903 374.185 718.633 374.633C718.363 375.073 718.221 375.574 718.206 376.135V379.214C718.206 379.881 718.338 380.467 718.601 380.972C718.863 381.469 719.236 381.856 719.719 382.133C720.202 382.41 720.778 382.548 721.445 382.548C721.907 382.548 722.326 382.484 722.702 382.357C723.079 382.229 723.402 382.04 723.672 381.792C723.942 381.543 724.144 381.238 724.279 380.876L729.062 381.014C728.863 382.087 728.427 383.021 727.752 383.816C727.084 384.604 726.207 385.219 725.121 385.659C724.034 386.092 722.777 386.309 721.349 386.309ZM747.21 369.636L741.596 386H735.63L730.026 369.636H735.513L738.528 380.908H738.698L741.724 369.636H747.21ZM756.33 386.309C754.618 386.309 753.141 385.972 751.898 385.297C750.662 384.615 749.71 383.646 749.043 382.388C748.382 381.124 748.052 379.622 748.052 377.882C748.052 376.192 748.386 374.714 749.053 373.45C749.721 372.179 750.662 371.192 751.877 370.489C753.091 369.778 754.522 369.423 756.17 369.423C757.335 369.423 758.4 369.604 759.366 369.967C760.332 370.329 761.166 370.865 761.869 371.575C762.573 372.286 763.119 373.163 763.51 374.207C763.901 375.244 764.096 376.433 764.096 377.776V379.075H749.874V376.05H759.249C759.242 375.496 759.11 375.002 758.855 374.569C758.599 374.136 758.247 373.798 757.8 373.557C757.36 373.308 756.852 373.184 756.276 373.184C755.694 373.184 755.172 373.315 754.71 373.578C754.249 373.834 753.883 374.185 753.613 374.633C753.343 375.073 753.201 375.574 753.187 376.135V379.214C753.187 379.881 753.318 380.467 753.581 380.972C753.844 381.469 754.217 381.856 754.7 382.133C755.183 382.41 755.758 382.548 756.426 382.548C756.887 382.548 757.306 382.484 757.683 382.357C758.059 382.229 758.382 382.04 758.652 381.792C758.922 381.543 759.124 381.238 759.259 380.876L764.043 381.014C763.844 382.087 763.407 383.021 762.732 383.816C762.065 384.604 761.188 385.219 760.101 385.659C759.014 386.092 757.757 386.309 756.33 386.309ZM773.202 386V369.636H778.412V386H773.202ZM775.812 367.729C775.081 367.729 774.452 367.488 773.926 367.005C773.401 366.515 773.138 365.925 773.138 365.237C773.138 364.555 773.401 363.972 773.926 363.489C774.452 362.999 775.081 362.754 775.812 362.754C776.551 362.754 777.179 362.999 777.698 363.489C778.223 363.972 778.486 364.555 778.486 365.237C778.486 365.925 778.223 366.515 777.698 367.005C777.179 367.488 776.551 367.729 775.812 367.729ZM790.964 369.636V373.472H780.641V369.636H790.964ZM782.803 365.716H788.013V380.854C788.013 381.174 788.063 381.433 788.162 381.632C788.269 381.824 788.421 381.962 788.62 382.048C788.819 382.126 789.057 382.165 789.334 382.165C789.533 382.165 789.742 382.147 789.963 382.112C790.19 382.069 790.36 382.033 790.474 382.005L791.262 385.766C791.014 385.837 790.662 385.925 790.208 386.032C789.76 386.138 789.224 386.206 788.599 386.234C787.377 386.291 786.33 386.149 785.456 385.808C784.59 385.46 783.926 384.92 783.464 384.189C783.009 383.457 782.789 382.538 782.803 381.43V365.716Z" fill="white"/>
<defs>
<filter id="filter0_diiiii_445_580" x="348" y="183" width="86" height="86" filterUnits="userSpaceOnUse" color-interpolation-filters="sRGB">
<feFlood flood-opacity="0" result="BackgroundImageFix"/>
<feColorMatrix in="SourceAlpha" type="matrix" values="0 0 0 0 0 0 0 0 0 0 0 0 0 0 0 0 0 0 127 0" result="hardAlpha"/>
<feOffset dx="-1" dy="1"/>
<feGaussianBlur stdDeviation="1.5"/>
<feColorMatrix type="matrix" values="0 0 0 0 0.615686 0 0 0 0 0.615686 0 0 0 0 0.615686 0 0 0 0.9 0"/>
<feBlend mode="normal" in2="BackgroundImageFix" result="effect1_dropShadow_445_580"/>
<feBlend mode="normal" in="SourceGraphic" in2="effect1_dropShadow_445_580" result="shape"/>
<feColorMatrix in="SourceAlpha" type="matrix" values="0 0 0 0 0 0 0 0 0 0 0 0 0 0 0 0 0 0 127 0" result="hardAlpha"/>
<feOffset dx="1" dy="-1"/>
<feGaussianBlur stdDeviation="1"/>
<feComposite in2="hardAlpha" operator="arithmetic" k2="-1" k3="1"/>
<feColorMatrix type="matrix" values="0 0 0 0 1 0 0 0 0 1 0 0 0 0 1 0 0 0 0.9 0"/>
<feBlend mode="normal" in2="shape" result="effect2_innerShadow_445_580"/>
<feColorMatrix in="SourceAlpha" type="matrix" values="0 0 0 0 0 0 0 0 0 0 0 0 0 0 0 0 0 0 127 0" result="hardAlpha"/>
<feOffset dx="-1" dy="-1"/>
<feGaussianBlur stdDeviation="1"/>
<feComposite in2="hardAlpha" operator="arithmetic" k2="-1" k3="1"/>
<feColorMatrix type="matrix" values="0 0 0 0 0.615686 0 0 0 0 0.615686 0 0 0 0 0.615686 0 0 0 0.2 0"/>
<feBlend mode="normal" in2="effect2_innerShadow_445_580" result="effect3_innerShadow_445_580"/>
<feColorMatrix in="SourceAlpha" type="matrix" values="0 0 0 0 0 0 0 0 0 0 0 0 0 0 0 0 0 0 127 0" result="hardAlpha"/>
<feOffset dx="1" dy="1"/>
<feGaussianBlur stdDeviation="1"/>
<feComposite in2="hardAlpha" operator="arithmetic" k2="-1" k3="1"/>
<feColorMatrix type="matrix" values="0 0 0 0 0.615686 0 0 0 0 0.615686 0 0 0 0 0.615686 0 0 0 0.2 0"/>
<feBlend mode="normal" in2="effect3_innerShadow_445_580" result="effect4_innerShadow_445_580"/>
<feColorMatrix in="SourceAlpha" type="matrix" values="0 0 0 0 0 0 0 0 0 0 0 0 0 0 0 0 0 0 127 0" result="hardAlpha"/>
<feOffset dx="1" dy="-1"/>
<feGaussianBlur stdDeviation="1"/>
<feComposite in2="hardAlpha" operator="arithmetic" k2="-1" k3="1"/>
<feColorMatrix type="matrix" values="0 0 0 0 0.615686 0 0 0 0 0.615686 0 0 0 0 0.615686 0 0 0 0.5 0"/>
<feBlend mode="normal" in2="effect4_innerShadow_445_580" result="effect5_innerShadow_445_580"/>
<feColorMatrix in="SourceAlpha" type="matrix" values="0 0 0 0 0 0 0 0 0 0 0 0 0 0 0 0 0 0 127 0" result="hardAlpha"/>
<feOffset dx="-1" dy="1"/>
<feGaussianBlur stdDeviation="1"/>
<feComposite in2="hardAlpha" operator="arithmetic" k2="-1" k3="1"/>
<feColorMatrix type="matrix" values="0 0 0 0 1 0 0 0 0 1 0 0 0 0 1 0 0 0 0.3 0"/>
<feBlend mode="normal" in2="effect5_innerShadow_445_580" result="effect6_innerShadow_445_580"/>
</filter>
<linearGradient id="paint0_linear_445_580" x1="352" y1="185" x2="432" y2="265" gradientUnits="userSpaceOnUse">
<stop stop-color="#F2F2F2"/>
<stop offset="1" stop-color="white"/>
</linearGradient>
</defs>
</svg>
