<svg width="600" height="338" viewBox="0 0 600 338" fill="none" xmlns="http://www.w3.org/2000/svg">
<g clip-path="url(#clip0_383_847)">
<mask id="mask0_383_847" style="mask-type:luminance" maskUnits="userSpaceOnUse" x="0" y="0" width="600" height="338">
<path d="M600 0H0V337.243H600V0Z" fill="white"/>
</mask>
<g mask="url(#mask0_383_847)">
<path d="M45.7969 93.8142C45.2201 93.8154 44.6609 93.6144 44.2167 93.2464C43.7155 92.8321 43.3981 92.2366 43.3333 91.5894C43.2686 90.9419 43.4621 90.2955 43.8712 89.7901C45.1996 88.1657 46.6346 86.6314 48.167 85.1979C48.6296 84.7382 49.2551 84.48 49.9075 84.48C50.5599 84.48 51.1853 84.7382 51.648 85.1979C51.8793 85.4273 52.0631 85.7006 52.1884 86.0015C52.3138 86.3021 52.3782 86.6251 52.3782 86.9507C52.3782 87.2767 52.3138 87.5994 52.1884 87.9003C52.0631 88.2013 51.8793 88.4741 51.648 88.7036C50.2825 89.9908 48.9964 91.3592 47.7964 92.8021C47.5666 93.1165 47.2657 93.3722 46.9183 93.5481C46.5706 93.724 46.1866 93.8154 45.7969 93.8142Z" fill="#183154"/>
<g opacity="0.3">
<path opacity="0.3" d="M134.699 140.848V321.221C134.703 323.021 134.349 324.803 133.66 326.466C132.97 328.129 131.958 329.639 130.682 330.908C129.405 332.178 127.891 333.181 126.224 333.862C124.557 334.542 122.773 334.886 120.973 334.873H97.4448C102.028 334.873 106.424 333.052 109.665 329.812C112.906 326.571 114.727 322.175 114.727 317.592C114.727 313.008 112.906 308.612 109.665 305.371C106.424 302.13 102.028 300.309 97.4448 300.309H17.2818C12.6984 300.309 8.30268 298.489 5.06171 295.248C1.82076 292.007 0 287.611 0 283.028C0 278.444 1.82076 274.049 5.06171 270.808C8.30268 267.567 12.6984 265.746 17.2818 265.746H61.0787C65.6624 265.746 70.0581 263.925 73.2988 260.684C76.5399 257.443 78.3608 253.048 78.3608 248.464C78.3608 243.881 76.5399 239.485 73.2988 236.244C70.0581 233.003 65.6624 231.182 61.0787 231.182H17.2818C12.6984 231.182 8.30268 229.362 5.06171 226.121C1.82076 222.879 7.28373e-07 218.484 7.28373e-07 213.9C7.28373e-07 209.317 1.82076 204.921 5.06171 201.68C8.30268 198.439 12.6984 196.618 17.2818 196.618H73.6944C78.2781 196.618 82.6739 194.798 85.9145 191.557C89.1556 188.316 90.9765 183.92 90.9765 179.337C90.9765 174.753 89.1556 170.358 85.9145 167.117C82.6739 163.875 78.2781 162.055 73.6944 162.055H41.0568C36.4732 162.055 32.0775 160.234 28.8366 156.993C25.5956 153.752 23.7749 149.356 23.7749 144.773C23.7749 140.19 25.5956 135.794 28.8366 132.553C32.0775 129.312 36.4732 127.491 41.0568 127.491H120.973C124.557 127.465 128.008 128.851 130.578 131.352C133.147 133.852 134.628 137.263 134.699 140.848Z" fill="#BDDFE9"/>
<path opacity="0.3" d="M465.301 66.6585V247.031C465.301 250.646 466.735 254.112 469.291 256.668C471.848 259.224 475.314 260.66 478.929 260.66H502.529C497.948 260.66 493.55 258.839 490.312 255.598C487.07 252.357 485.248 247.961 485.248 243.377C485.248 238.794 487.07 234.398 490.312 231.157C493.55 227.916 497.948 226.096 502.529 226.096H582.644C587.229 226.096 591.623 224.275 594.865 221.034C598.106 217.793 599.925 213.397 599.925 208.814C599.925 204.23 598.106 199.835 594.865 196.594C591.623 193.353 587.229 191.532 582.644 191.532H538.922C534.337 191.532 529.943 189.711 526.701 186.47C523.46 183.229 521.641 178.833 521.641 174.25C521.641 169.667 523.46 165.271 526.701 162.03C529.943 158.789 534.337 156.968 538.922 156.968H582.644C587.229 156.968 591.623 155.147 594.865 151.906C598.106 148.666 599.925 144.27 599.925 139.686C599.925 135.103 598.106 130.707 594.865 127.466C591.623 124.226 587.229 122.405 582.644 122.405H526.282C521.697 122.405 517.303 120.584 514.061 117.343C510.82 114.102 509.001 109.706 509.001 105.123C509.001 100.539 510.82 96.1439 514.061 92.9028C517.303 89.6618 521.697 87.8412 526.282 87.8412H558.943C563.528 87.8412 567.923 86.0202 571.164 82.7792C574.405 79.5381 576.225 75.1428 576.225 70.5591C576.225 65.9758 574.405 61.5801 571.164 58.339C567.923 55.098 563.528 53.2774 558.943 53.2774H478.952C475.377 53.2703 471.941 54.6694 469.389 57.1727C466.832 59.6756 465.365 63.0829 465.301 66.6585Z" fill="#BDDFE9"/>
</g>
<path d="M479.053 185.631H131.243V295.519H479.053V185.631Z" fill="#8BBBC6"/>
<path d="M487.916 234.663H114.949C104.027 234.663 95.1731 243.517 95.1731 254.439V314.407C95.1731 325.328 104.027 334.182 114.949 334.182H487.916C498.838 334.182 507.69 325.328 507.69 314.407V254.439C507.69 243.517 498.838 234.663 487.916 234.663Z" fill="#EBEDED"/>
<path d="M481.594 171.905H133.786V225.207H481.594V171.905Z" fill="#6798A0"/>
<path d="M46.9077 136.798C46.9077 127.673 49.6086 118.753 54.6699 111.161C59.7312 103.569 66.9263 97.6458 75.3488 94.1364C74.6829 90.6124 74.352 87.0329 74.3614 83.4464C74.5541 69.3698 79.7528 55.8221 89.0256 45.2295C98.2985 34.6373 111.04 27.6927 124.967 25.6398C138.895 23.587 153.098 26.56 165.032 34.0264C176.967 41.4928 185.854 52.9647 190.1 66.3867C194.7 65.2731 199.415 64.7098 204.148 64.7079C229.132 64.7079 219.208 97.8397 227.848 119.763C230.515 126.478 263.276 116.183 263.276 123.837C263.276 139.551 257.033 154.622 245.922 165.734C234.81 176.846 219.739 183.088 204.024 183.088L99.7159 185.631V149.364" fill="#BDDFE9"/>
<path d="M123.688 45.105L112.381 39.2046L99.6914 40.3402L105.592 29.0331L104.456 16.3433L115.763 22.2438L128.453 21.1081L122.553 32.4154L123.688 45.105Z" fill="#EEF0F1"/>
<path d="M97.6918 91.322C100.051 91.322 101.963 89.4097 101.963 87.0509C101.963 84.6921 100.051 82.7798 97.6918 82.7798C95.3329 82.7798 93.4207 84.6921 93.4207 87.0509C93.4207 89.4097 95.3329 91.322 97.6918 91.322Z" fill="#EEF0F1"/>
<path d="M393.432 144.056C402.389 144.03 411.058 140.906 417.971 135.213C424.888 129.521 429.616 121.611 431.364 112.826C433.108 104.042 431.757 94.9253 427.546 87.0227C423.331 79.1202 416.511 72.9192 408.247 69.4726C408.793 66.509 409.067 63.5003 409.059 60.4861C409.052 48.5804 404.762 37.0749 396.977 28.067C389.191 19.0591 378.43 13.1485 366.65 11.4129C354.872 9.67719 342.862 12.232 332.809 18.6115C322.757 24.991 315.332 34.7703 311.887 46.167C308.029 45.2454 304.077 44.7731 300.111 44.7596C293.591 44.7596 287.135 46.0438 281.111 48.5389C275.088 51.034 269.615 54.6912 265.005 59.3015C260.394 63.9117 256.737 69.3847 254.242 75.4083C251.747 81.4318 250.463 87.8881 250.463 94.408C250.463 100.928 251.747 107.384 254.242 113.407C256.737 119.431 260.394 124.904 265.005 129.515C269.615 134.125 275.088 137.782 281.111 140.277C287.135 142.772 293.591 144.056 300.111 144.056H393.432Z" fill="white"/>
<path d="M427.677 102.605C427.669 112.664 423.668 122.31 416.553 129.421C409.437 136.532 399.788 140.526 389.73 140.526H298.383C290.213 140.535 282.174 138.478 275.013 134.546C267.851 130.613 261.801 124.934 257.425 118.035C265.207 123.015 274.256 125.655 283.496 125.639H374.841C384.902 125.639 394.551 121.644 401.667 114.533C408.782 107.423 412.783 97.7773 412.787 87.7177C412.802 81.3175 411.178 75.0203 408.075 69.4238C414.015 72.6896 418.971 77.4929 422.418 83.3301C425.865 89.1677 427.681 95.825 427.677 102.605Z" fill="#BDDFE9"/>
<path d="M391.086 143.341H299.741C292.652 143.286 285.652 141.754 279.187 138.845C272.723 135.936 266.935 131.712 262.192 126.443C257.449 121.174 253.856 114.975 251.64 108.241C249.425 101.507 248.637 94.3851 249.325 87.3296C250.013 80.2737 252.164 73.439 255.639 67.2597C259.114 61.0808 263.838 55.6931 269.509 51.4403C275.181 47.1872 281.676 44.1617 288.581 42.5571C295.486 40.9521 302.65 40.8028 309.616 42.1188C313.552 30.647 321.445 20.952 331.88 14.7716C342.315 8.59122 354.611 6.32945 366.562 8.39168C378.513 10.4539 389.341 16.7054 397.101 26.0255C404.86 35.3456 409.048 47.1251 408.913 59.2523C408.921 61.7306 408.749 64.2062 408.393 66.6589C416.691 70.5812 423.402 77.2115 427.426 85.4581C431.45 93.7046 432.547 103.076 430.537 112.029C428.523 120.982 423.522 128.983 416.358 134.714C409.19 140.446 400.29 143.567 391.112 143.563L391.086 143.341ZM299.741 46.1923C287.697 46.4712 276.242 51.4508 267.822 60.0672C259.403 68.6831 254.69 80.2512 254.69 92.2976C254.69 104.344 259.403 115.912 267.822 124.528C276.242 133.145 287.697 138.124 299.741 138.403H391.086C399.279 138.387 407.214 135.536 413.543 130.334C419.873 125.132 424.207 117.899 425.809 109.865C427.411 101.829 426.183 93.4879 422.336 86.2557C418.484 79.0235 412.252 73.3469 404.691 70.1893L402.839 69.3992L403.209 67.4244C403.729 64.6901 403.988 61.9125 403.976 59.1292C403.965 48.0769 399.983 37.3963 392.759 29.0336C385.531 20.671 375.541 15.1832 364.608 13.5704C353.674 11.9575 342.525 14.3271 333.192 20.2471C323.859 26.1671 316.964 35.2435 313.764 45.8221L313.072 48.0687L310.801 47.5009C307.212 46.6329 303.532 46.1938 299.84 46.1923H299.741Z" fill="#183154"/>
<path d="M488.631 119.812H115.665C104.743 119.812 95.8896 128.666 95.8896 139.587V199.555C95.8896 210.477 104.743 219.33 115.665 219.33H488.631C499.553 219.33 508.406 210.477 508.406 199.555V139.587C508.406 128.666 499.553 119.812 488.631 119.812Z" fill="white"/>
<path d="M490.432 118.133H117.467C106.546 118.133 97.6919 126.987 97.6919 137.909V197.877C97.6919 208.798 106.546 217.652 117.467 217.652H490.432C501.354 217.652 510.21 208.798 510.21 197.877V137.909C510.21 126.987 501.354 118.133 490.432 118.133Z" fill="#EBEDED"/>
<path d="M270.386 118.726C270.386 134.441 264.144 149.512 253.031 160.624C241.92 171.736 226.849 177.978 211.134 177.978H100.037H98.0615V165.807H193.112C206.877 165.811 220.213 161.008 230.814 152.228C241.416 143.447 248.618 131.24 251.179 117.714H270.361C270.386 118.035 270.386 118.504 270.386 118.726Z" fill="#C5D1D1"/>
<path d="M131.243 184.273C140.937 184.273 148.797 176.415 148.797 166.72C148.797 157.026 140.937 149.167 131.243 149.167C121.549 149.167 113.69 157.026 113.69 166.72C113.69 176.415 121.549 184.273 131.243 184.273Z" fill="white"/>
<path d="M183.879 184.273C193.573 184.273 201.432 176.415 201.432 166.72C201.432 157.026 193.573 149.167 183.879 149.167C174.185 149.167 166.325 157.026 166.325 166.72C166.325 176.415 174.185 184.273 183.879 184.273Z" fill="white"/>
<path d="M507.911 137.933V197.877C507.911 203.115 505.83 208.138 502.129 211.842C498.423 215.546 493.4 217.627 488.163 217.627H378.67C376.031 217.627 373.5 216.579 371.634 214.713C369.768 212.847 368.72 210.316 368.72 207.678C368.72 205.039 369.768 202.508 371.634 200.642C373.5 198.776 376.031 197.728 378.67 197.728H479.349C481.988 197.728 484.518 196.68 486.386 194.814C488.25 192.948 489.298 190.418 489.298 187.779C489.298 185.14 488.25 182.609 486.386 180.744C484.518 178.878 481.988 177.83 479.349 177.83H415.16C413.854 177.83 412.559 177.572 411.35 177.072C410.145 176.572 409.048 175.839 408.124 174.915C407.199 173.992 406.465 172.895 405.968 171.688C405.466 170.481 405.208 169.187 405.208 167.88C405.208 166.574 405.466 165.28 405.968 164.073C406.465 162.866 407.199 161.769 408.124 160.845C409.048 159.921 410.145 159.188 411.35 158.688C412.559 158.188 413.854 157.931 415.16 157.931H445.995C448.638 157.931 451.172 156.881 453.039 155.013C454.907 153.145 455.955 150.611 455.955 147.969C455.955 145.327 454.907 142.793 453.039 140.925C451.172 139.057 448.638 138.007 445.995 138.007H400.222C397.583 138.007 395.053 136.959 393.189 135.093C391.321 133.227 390.273 130.696 390.273 128.058C390.273 125.419 391.321 122.889 393.189 121.023C395.053 119.157 397.583 118.108 400.222 118.108H488.111C490.716 118.102 493.295 118.61 495.702 119.605C498.109 120.599 500.298 122.06 502.136 123.902C503.978 125.745 505.434 127.933 506.426 130.341C507.417 132.749 507.923 135.329 507.911 137.933Z" fill="#C5D1D1"/>
<path d="M317.492 121.195H301.445C300.79 121.195 300.162 120.935 299.699 120.472C299.236 120.009 298.976 119.381 298.976 118.726C298.976 118.072 299.236 117.444 299.699 116.981C300.162 116.518 300.79 116.258 301.445 116.258H317.492C318.147 116.258 318.775 116.518 319.238 116.981C319.701 117.444 319.961 118.072 319.961 118.726C319.961 119.381 319.701 120.009 319.238 120.472C318.775 120.935 318.147 121.195 317.492 121.195Z" fill="#183154"/>
<path d="M488.976 220.739H116.035C110.142 220.739 104.49 218.398 100.324 214.231C96.1565 210.064 93.8157 204.412 93.8157 198.519V138.527C93.8157 132.634 96.1565 126.982 100.324 122.815C104.49 118.648 110.142 116.307 116.035 116.307H284.064C284.718 116.307 285.346 116.567 285.809 117.03C286.272 117.493 286.532 118.121 286.532 118.776C286.532 119.431 286.272 120.059 285.809 120.522C285.346 120.985 284.718 121.245 284.064 121.245H116.035C111.451 121.245 107.056 123.066 103.815 126.307C100.574 129.548 98.753 133.943 98.753 138.527V198.47C98.753 203.053 100.574 207.449 103.815 210.69C107.056 213.931 111.451 215.752 116.035 215.752H488.976C493.561 215.752 497.955 213.931 501.197 210.69C504.438 207.449 506.257 203.053 506.257 198.47V138.527C506.257 133.943 504.438 129.548 501.197 126.307C497.955 123.066 493.561 121.245 488.976 121.245H348.105C347.45 121.245 346.823 120.985 346.36 120.522C345.897 120.059 345.636 119.431 345.636 118.776C345.636 118.121 345.897 117.493 346.36 117.03C346.823 116.567 347.45 116.307 348.105 116.307H489.002C494.893 116.307 500.545 118.648 504.711 122.815C508.881 126.982 511.22 132.634 511.22 138.527V198.47C511.228 201.394 510.655 204.291 509.54 206.994C508.424 209.697 506.789 212.153 504.722 214.222C502.656 216.291 500.201 217.932 497.499 219.05C494.796 220.168 491.899 220.742 488.976 220.739Z" fill="#183154"/>
<path d="M332.23 121.195H326.453C325.799 121.195 325.171 120.935 324.708 120.472C324.245 120.009 323.985 119.381 323.985 118.726C323.985 118.072 324.245 117.444 324.708 116.981C325.171 116.518 325.799 116.258 326.453 116.258H332.23C332.885 116.258 333.513 116.518 333.976 116.981C334.439 117.444 334.699 118.072 334.699 118.726C334.699 119.381 334.439 120.009 333.976 120.472C333.513 120.935 332.885 121.195 332.23 121.195Z" fill="#183154"/>
<path d="M506.257 256.931V316.875C506.257 322.113 504.176 327.136 500.474 330.841C496.769 334.545 491.746 336.625 486.509 336.625H377.016C374.377 336.625 371.845 335.577 369.98 333.711C368.114 331.845 367.066 329.315 367.066 326.676C367.066 324.037 368.114 321.506 369.98 319.64C371.845 317.775 374.377 316.726 377.016 316.726H477.694C480.333 316.726 482.863 315.678 484.727 313.812C486.595 311.946 487.643 309.416 487.643 306.777C487.643 304.138 486.595 301.608 484.727 299.742C482.863 297.876 480.333 296.828 477.694 296.828H413.506C410.867 296.828 408.333 295.779 406.469 293.913C404.601 292.048 403.553 289.517 403.553 286.878C403.553 284.24 404.601 281.709 406.469 279.843C408.333 277.977 410.867 276.929 413.506 276.929H444.389C447.032 276.929 449.566 275.879 451.434 274.011C453.301 272.143 454.349 269.609 454.349 266.967C454.349 264.325 453.301 261.791 451.434 259.923C449.566 258.055 447.032 257.005 444.389 257.005H398.568C395.929 257.005 393.399 255.957 391.531 254.091C389.667 252.226 388.619 249.695 388.619 247.056C388.619 244.417 389.667 241.887 391.531 240.021C393.399 238.155 395.929 237.107 398.568 237.107H486.359C488.972 237.087 491.562 237.586 493.98 238.574C496.398 239.563 498.595 241.021 500.448 242.865C502.297 244.709 503.764 246.902 504.764 249.316C505.759 251.73 506.268 254.319 506.257 256.931Z" fill="#C5D1D1"/>
<path d="M459.919 119.294C459.264 119.294 458.635 119.034 458.175 118.571C457.71 118.108 457.448 117.48 457.448 116.825V62.3375C457.448 61.6829 457.71 61.0548 458.175 60.5918C458.635 60.1288 459.264 59.8687 459.919 59.8687C460.574 59.8687 461.203 60.1288 461.663 60.5918C462.127 61.0548 462.389 61.6829 462.389 62.3375V116.825C462.389 117.48 462.127 118.108 461.663 118.571C461.203 119.034 460.574 119.294 459.919 119.294Z" fill="#183154"/>
<path d="M480.236 119.911C479.581 119.911 478.956 119.65 478.491 119.187C478.027 118.724 477.769 118.096 477.769 117.442V16.8121C477.769 16.1573 478.027 15.5294 478.491 15.0664C478.956 14.6034 479.581 14.3433 480.236 14.3433C480.891 14.3433 481.52 14.6034 481.984 15.0664C482.444 15.5294 482.706 16.1573 482.706 16.8121V117.442C482.706 118.096 482.444 118.724 481.984 119.187C481.52 119.65 480.891 119.911 480.236 119.911Z" fill="#183154"/>
<path d="M479.053 22.0719C484.821 22.0719 489.496 17.3963 489.496 11.6287C489.496 5.8611 484.821 1.18555 479.053 1.18555C473.285 1.18555 468.61 5.8611 468.61 11.6287C468.61 17.3963 473.285 22.0719 479.053 22.0719Z" fill="#FFADAD"/>
<path d="M479.914 25.7991C477.361 25.804 474.861 25.0502 472.731 23.6333C470.605 22.2164 468.947 20.2001 467.966 17.8397C466.986 15.4794 466.727 12.8811 467.225 10.3742C467.723 7.86718 468.954 5.5642 470.762 3.75693C472.566 1.94968 474.872 0.719426 477.38 0.222002C479.884 -0.275423 482.481 -0.0176416 484.843 0.962697C487.205 1.94303 489.219 3.60182 490.637 5.72896C492.052 7.8561 492.808 10.3559 492.805 12.9118C492.797 16.3277 491.435 19.6018 489.02 22.0173C486.606 24.4327 483.331 25.7925 479.914 25.7991ZM479.914 4.93743C478.338 4.93257 476.792 5.39606 475.478 6.26934C474.165 7.14257 473.139 8.38629 472.529 9.84299C471.922 11.2996 471.762 12.9038 472.068 14.4523C472.372 16.0008 473.128 17.424 474.243 18.5417C475.359 19.6594 476.777 20.4213 478.327 20.731C479.873 21.0407 481.478 20.8843 482.938 20.2814C484.394 19.6786 485.641 18.6565 486.52 17.3446C487.396 16.0327 487.864 14.49 487.864 12.9118C487.864 10.8011 487.029 8.77653 485.539 7.28177C484.05 5.78701 482.025 4.94398 479.914 4.93743Z" fill="#183154"/>
<path d="M357.017 264.732H301.913C292.219 264.732 284.36 272.592 284.36 282.286V282.311C284.36 292.005 292.219 299.864 301.913 299.864H357.017C366.712 299.864 374.571 292.005 374.571 282.311V282.286C374.571 272.592 366.712 264.732 357.017 264.732Z" fill="#7DADB5"/>
<path d="M356.993 302.309H301.913C296.603 302.309 291.511 300.199 287.756 296.444C284.001 292.69 281.891 287.597 281.891 282.287C281.891 276.976 284.001 271.884 287.756 268.129C291.511 264.374 296.603 262.265 301.913 262.265H356.993C362.303 262.265 367.396 264.374 371.151 268.129C374.905 271.884 377.016 276.976 377.016 282.287C377.016 287.597 374.905 292.69 371.151 296.444C367.396 300.199 362.303 302.309 356.993 302.309ZM301.913 267.202C297.913 267.202 294.076 268.791 291.247 271.62C288.418 274.449 286.829 278.286 286.829 282.287C286.829 286.287 288.418 290.124 291.247 292.953C294.076 295.782 297.913 297.371 301.913 297.371H356.993C360.994 297.371 364.83 295.782 367.659 292.953C370.488 290.124 372.078 286.287 372.078 282.287C372.078 278.286 370.488 274.449 367.659 271.62C364.83 268.791 360.994 267.202 356.993 267.202H301.913Z" fill="#183154"/>
<path d="M131.638 186.768C127.672 186.773 123.794 185.601 120.494 183.401C117.194 181.201 114.621 178.072 113.1 174.41C111.578 170.747 111.178 166.715 111.949 162.825C112.72 158.935 114.627 155.361 117.429 152.554C120.232 149.748 123.804 147.836 127.693 147.061C131.583 146.285 135.615 146.681 139.279 148.198C142.944 149.714 146.076 152.283 148.28 155.581C150.484 158.878 151.66 162.755 151.66 166.721C151.66 172.033 149.552 177.129 145.797 180.887C142.043 184.646 136.951 186.761 131.638 186.768ZM131.638 151.636C128.648 151.631 125.723 152.514 123.235 154.173C120.746 155.831 118.806 158.19 117.659 160.952C116.512 163.714 116.211 166.754 116.793 169.687C117.376 172.62 118.815 175.315 120.929 177.43C123.044 179.544 125.739 180.983 128.672 181.566C131.605 182.148 134.645 181.847 137.407 180.7C140.169 179.553 142.528 177.613 144.187 175.124C145.845 172.636 146.728 169.711 146.723 166.721C146.716 162.722 145.125 158.889 142.297 156.062C139.47 153.234 135.637 151.643 131.638 151.636Z" fill="#183154"/>
<path d="M184.274 186.768C180.308 186.773 176.429 185.601 173.129 183.401C169.829 181.201 167.256 178.072 165.735 174.41C164.214 170.747 163.813 166.715 164.584 162.825C165.355 158.935 167.262 155.361 170.065 152.554C172.868 149.748 176.44 147.836 180.329 147.061C184.218 146.285 188.25 146.681 191.915 148.198C195.579 149.714 198.712 152.283 200.916 155.581C203.12 158.878 204.296 162.755 204.296 166.721C204.296 172.033 202.187 177.129 198.433 180.887C194.679 184.646 189.586 186.761 184.274 186.768ZM184.274 151.636C181.283 151.631 178.359 152.514 175.87 154.173C173.382 155.831 171.441 158.19 170.295 160.952C169.148 163.714 168.847 166.754 169.429 169.687C170.011 172.62 171.451 175.315 173.565 177.43C175.68 179.544 178.374 180.983 181.307 181.566C184.241 182.148 187.28 181.847 190.042 180.7C192.804 179.553 195.164 177.613 196.822 175.124C198.481 172.636 199.363 169.711 199.358 166.721C199.352 162.722 197.76 158.889 194.933 156.062C192.105 153.234 188.272 151.643 184.274 151.636Z" fill="#183154"/>
<path d="M236.909 184.273C246.604 184.273 254.463 176.415 254.463 166.72C254.463 157.026 246.604 149.167 236.909 149.167C227.215 149.167 219.356 157.026 219.356 166.72C219.356 176.415 227.215 184.273 236.909 184.273Z" fill="#EEF0F1"/>
<path d="M239.057 186.965C235.096 186.94 231.232 185.743 227.95 183.524C224.669 181.306 222.119 178.165 220.622 174.499C219.124 170.832 218.746 166.804 219.536 162.923C220.325 159.041 222.246 155.481 225.057 152.69C227.868 149.9 231.443 148.005 235.329 147.244C239.216 146.483 243.242 146.891 246.897 148.416C250.552 149.941 253.674 152.514 255.869 155.811C258.063 159.108 259.232 162.982 259.227 166.942C259.224 169.583 258.699 172.198 257.682 174.635C256.666 177.073 255.177 179.285 253.303 181.145C251.429 183.006 249.205 184.478 246.76 185.476C244.316 186.475 241.698 186.981 239.057 186.965ZM239.057 151.833C236.074 151.858 233.165 152.764 230.696 154.439C228.228 156.114 226.311 158.482 225.186 161.245C224.061 164.008 223.78 167.042 224.376 169.965C224.973 172.888 226.422 175.568 228.54 177.669C230.658 179.77 233.35 181.197 236.277 181.77C239.205 182.343 242.237 182.037 244.99 180.889C247.744 179.742 250.097 177.806 251.751 175.324C253.406 172.842 254.289 169.925 254.289 166.942C254.289 164.948 253.895 162.973 253.128 161.132C252.36 159.29 251.237 157.619 249.82 156.214C248.404 154.81 246.724 153.7 244.877 152.948C243.029 152.196 241.051 151.817 239.057 151.833Z" fill="#183154"/>
<path d="M466.237 149.364H312.381C302.687 149.364 294.828 157.223 294.828 166.918V166.942C294.828 176.637 302.687 184.496 312.381 184.496H466.237C475.935 184.496 483.792 176.637 483.792 166.942V166.918C483.792 157.223 475.935 149.364 466.237 149.364Z" fill="#EEF0F1"/>
<path d="M464.141 186.865H310.332C307.642 186.959 304.96 186.511 302.447 185.547C299.934 184.582 297.641 183.122 295.704 181.252C293.768 179.382 292.228 177.142 291.176 174.664C290.124 172.186 289.582 169.522 289.582 166.83C289.582 164.138 290.124 161.474 291.176 158.997C292.228 156.519 293.768 154.278 295.704 152.408C297.641 150.538 299.934 149.078 302.447 148.114C304.96 147.15 307.642 146.701 310.332 146.796H464.141C466.832 146.701 469.512 147.15 472.024 148.114C474.539 149.078 476.83 150.538 478.769 152.408C480.704 154.278 482.246 156.519 483.298 158.997C484.349 161.474 484.892 164.138 484.892 166.83C484.892 169.522 484.349 172.186 483.298 174.664C482.246 177.142 480.704 179.382 478.769 181.252C476.83 183.122 474.539 184.582 472.024 185.547C469.512 186.511 466.832 186.959 464.141 186.865ZM310.332 151.733C308.298 151.651 306.269 151.981 304.365 152.702C302.462 153.424 300.724 154.523 299.256 155.933C297.788 157.342 296.619 159.035 295.821 160.907C295.024 162.78 294.612 164.795 294.612 166.83C294.612 168.866 295.024 170.88 295.821 172.753C296.619 174.626 297.788 176.318 299.256 177.728C300.724 179.138 302.462 180.236 304.365 180.958C306.269 181.68 308.298 182.009 310.332 181.927H464.141C466.173 182.009 468.202 181.68 470.107 180.958C472.009 180.236 473.749 179.138 475.216 177.728C476.684 176.318 477.852 174.626 478.653 172.753C479.45 170.88 479.862 168.866 479.862 166.83C479.862 164.795 479.45 162.78 478.653 160.907C477.852 159.035 476.684 157.342 475.216 155.933C473.749 154.523 472.009 153.424 470.107 152.702C468.202 151.981 466.173 151.651 464.141 151.733H310.332Z" fill="#183154"/>
<path d="M131.638 237.132C130.983 237.132 130.356 236.872 129.893 236.409C129.43 235.946 129.169 235.318 129.169 234.663V219.06C129.169 218.406 129.43 217.777 129.893 217.314C130.356 216.851 130.983 216.591 131.638 216.591C132.293 216.591 132.921 216.851 133.384 217.314C133.847 217.777 134.107 218.406 134.107 219.06V234.663C134.107 235.318 133.847 235.946 133.384 236.409C132.921 236.872 132.293 237.132 131.638 237.132Z" fill="#183154"/>
<path d="M478.952 237.132C478.297 237.132 477.672 236.872 477.208 236.409C476.744 235.946 476.485 235.318 476.485 234.663V219.06C476.485 218.406 476.744 217.777 477.208 217.314C477.672 216.851 478.297 216.591 478.952 216.591C479.607 216.591 480.236 216.851 480.7 217.314C481.16 217.777 481.422 218.406 481.422 219.06V234.663C481.422 235.318 481.16 235.946 480.7 236.409C480.236 236.872 479.607 237.132 478.952 237.132Z" fill="#183154"/>
<path d="M80.8046 167.559C70.109 167.576 59.7391 163.881 51.4641 157.105C43.1895 150.329 37.5222 140.891 35.4303 130.402C33.3384 119.913 34.9511 109.023 39.9933 99.5908C45.0355 90.1585 53.1948 82.768 63.0785 78.681C62.4123 75.1567 62.0818 71.5772 62.0908 67.9907C62.3412 53.956 67.5664 40.4663 76.8347 29.9245C86.1031 19.3827 98.8128 12.4736 112.7 10.4284C126.587 8.38313 140.749 11.3344 152.663 18.7565C164.577 26.1786 173.47 37.5895 177.756 50.956C182.391 49.8679 187.14 49.3372 191.902 49.3757C206.961 50.2991 221.1 56.9321 231.436 67.9218C241.772 78.9112 247.527 93.4299 247.527 108.517C247.527 123.604 241.772 138.122 231.436 149.112C221.1 160.101 206.961 166.734 191.902 167.658L80.8046 167.559Z" fill="#FFADAD"/>
<path opacity="0.7" d="M223.651 57.1533C229.202 66.1133 232.263 76.3915 232.517 86.9284C232.772 97.4652 230.211 107.879 225.1 117.097C219.988 126.314 212.51 134.001 203.437 139.365C194.364 144.729 184.025 147.576 173.485 147.611H62.387C54.7637 147.614 47.2579 145.731 40.5381 142.131C44.4929 149.486 50.3664 155.634 57.5346 159.92C64.7024 164.206 72.8973 166.47 81.249 166.473H192.346C205.151 166.391 217.585 162.163 227.786 154.423C237.986 146.682 245.404 135.845 248.93 123.534C252.455 111.224 251.897 98.103 247.34 86.136C242.783 74.1693 234.472 64.0007 223.651 57.1533Z" fill="#99394C"/>
<path d="M107.739 24.4661C108.722 24.4661 109.664 24.0759 110.358 23.3814C111.053 22.6869 111.443 21.745 111.443 20.7628C111.443 19.7807 111.053 18.8387 110.358 18.1443C109.664 17.4497 108.722 17.0596 107.739 17.0596C106.757 17.0596 105.815 17.4497 105.121 18.1443C104.427 18.8387 104.036 19.7807 104.036 20.7628C104.036 21.745 104.427 22.6869 105.121 23.3814C105.815 24.0759 106.757 24.4661 107.739 24.4661Z" fill="#FDFEFF"/>
<path d="M85.0266 42.0934C88.5398 37.539 92.7869 33.6009 97.5929 30.4406C100.555 28.4655 97.7659 23.6513 94.8033 25.6511C89.2057 29.338 84.2724 33.9457 80.2124 39.2791C78.0647 42.1428 82.8789 44.9081 85.0266 42.0934Z" fill="#FDFEFF"/>
<path d="M369.066 258.634C373.402 258.634 376.918 255.119 376.918 250.784C376.918 246.448 373.402 242.933 369.066 242.933C364.73 242.933 361.215 246.448 361.215 250.784C361.215 255.119 364.73 258.634 369.066 258.634Z" fill="#C5D1D1"/>
<path opacity="0.5" d="M352.376 257.227C354.544 257.227 356.301 255.47 356.301 253.301C356.301 251.133 354.544 249.376 352.376 249.376C350.208 249.376 348.45 251.133 348.45 253.301C348.45 255.47 350.208 257.227 352.376 257.227Z" fill="#C5D1D1"/>
<path d="M370.72 139.662C375.054 139.662 378.569 136.147 378.569 131.811C378.569 127.475 375.054 123.96 370.72 123.96C366.384 123.96 362.869 127.475 362.869 131.811C362.869 136.147 366.384 139.662 370.72 139.662Z" fill="#C5D1D1"/>
<path opacity="0.5" d="M354.031 138.254C356.199 138.254 357.956 136.497 357.956 134.329C357.956 132.161 356.199 130.403 354.031 130.403C351.863 130.403 350.105 132.161 350.105 134.329C350.105 136.497 351.863 138.254 354.031 138.254Z" fill="#C5D1D1"/>
<path d="M118.677 258.462C122.181 258.462 125.022 255.621 125.022 252.117C125.022 248.613 122.181 245.772 118.677 245.772C115.173 245.772 112.332 248.613 112.332 252.117C112.332 255.621 115.173 258.462 118.677 258.462Z" fill="white"/>
<path opacity="0.5" d="M110.604 266.289C112.362 266.289 113.789 264.863 113.789 263.104C113.789 261.345 112.362 259.919 110.604 259.919C108.845 259.919 107.419 261.345 107.419 263.104C107.419 264.863 108.845 266.289 110.604 266.289Z" fill="white"/>
<path d="M148.92 257.622C152.424 257.622 155.265 254.782 155.265 251.277C155.265 247.773 152.424 244.933 148.92 244.933C145.416 244.933 142.575 247.773 142.575 251.277C142.575 254.782 145.416 257.622 148.92 257.622Z" fill="white"/>
<path opacity="0.5" d="M135.292 254.067C137.051 254.067 138.477 252.641 138.477 250.882C138.477 249.123 137.051 247.698 135.292 247.698C133.533 247.698 132.107 249.123 132.107 250.882C132.107 252.641 133.533 254.067 135.292 254.067Z" fill="white"/>
<path d="M284.088 151.536C290.006 151.536 294.803 146.739 294.803 140.822C294.803 134.904 290.006 130.107 284.088 130.107C278.171 130.107 273.374 134.904 273.374 140.822C273.374 146.739 278.171 151.536 284.088 151.536Z" fill="white"/>
<path opacity="0.5" d="M279.546 166.721C282.505 166.721 284.903 164.323 284.903 161.364C284.903 158.405 282.505 156.006 279.546 156.006C276.587 156.006 274.188 158.405 274.188 161.364C274.188 164.323 276.587 166.721 279.546 166.721Z" fill="white"/>
<path d="M134.107 299.839C143.801 299.839 151.66 291.981 151.66 282.286C151.66 272.592 143.801 264.732 134.107 264.732C124.412 264.732 116.553 272.592 116.553 282.286C116.553 291.981 124.412 299.839 134.107 299.839Z" fill="#FFADAD"/>
<path opacity="0.7" d="M151.018 281.224C150.977 285.031 149.698 288.722 147.375 291.739C145.053 294.756 141.812 296.936 138.142 297.95C134.472 298.965 130.572 298.758 127.03 297.362C123.487 295.966 120.495 293.456 118.504 290.21C121.209 291.836 124.309 292.69 127.466 292.679C132.121 292.679 136.586 290.83 139.878 287.538C143.17 284.246 145.019 279.781 145.019 275.126C145.03 271.969 144.176 268.869 142.55 266.164C145.144 267.727 147.287 269.937 148.772 272.576C150.256 275.216 151.03 278.195 151.018 281.224Z" fill="#99394C"/>
<path d="M133.786 302.531C129.821 302.531 125.945 301.355 122.649 299.152C119.352 296.95 116.783 293.819 115.265 290.155C113.748 286.493 113.351 282.462 114.124 278.573C114.898 274.684 116.807 271.112 119.611 268.309C122.414 265.505 125.987 263.596 129.875 262.822C133.764 262.049 137.795 262.446 141.458 263.963C145.121 265.48 148.252 268.05 150.454 271.347C152.657 274.643 153.833 278.519 153.833 282.484C153.833 287.801 151.721 292.9 147.961 296.659C144.202 300.419 139.103 302.531 133.786 302.531ZM133.786 267.399C130.797 267.399 127.875 268.286 125.389 269.947C122.904 271.609 120.968 273.97 119.825 276.732C118.682 279.495 118.384 282.534 118.969 285.465C119.554 288.397 120.995 291.089 123.111 293.201C125.226 295.313 127.921 296.75 130.854 297.331C133.786 297.911 136.825 297.608 139.585 296.46C142.346 295.313 144.704 293.373 146.361 290.885C148.018 288.397 148.9 285.473 148.896 282.484C148.889 278.481 147.294 274.644 144.461 271.816C141.629 268.988 137.789 267.399 133.786 267.399Z" fill="#183154"/>
<path d="M184.274 299.839C193.968 299.839 201.827 291.981 201.827 282.286C201.827 272.592 193.968 264.732 184.274 264.732C174.579 264.732 166.72 272.592 166.72 282.286C166.72 291.981 174.579 299.839 184.274 299.839Z" fill="#FFADAD"/>
<path d="M236.909 299.839C246.604 299.839 254.463 291.981 254.463 282.286C254.463 272.592 246.604 264.732 236.909 264.732C227.215 264.732 219.356 272.592 219.356 282.286C219.356 291.981 227.215 299.839 236.909 299.839Z" fill="#EEF0F1"/>
<path d="M239.057 302.531C235.092 302.531 231.216 301.355 227.919 299.152C224.623 296.95 222.053 293.819 220.536 290.155C219.018 286.493 218.622 282.462 219.395 278.573C220.169 274.684 222.078 271.112 224.881 268.309C227.685 265.505 231.257 263.596 235.146 262.822C239.034 262.049 243.065 262.446 246.728 263.963C250.391 265.48 253.522 268.05 255.725 271.347C257.928 274.643 259.103 278.519 259.103 282.484C259.103 287.801 256.992 292.9 253.232 296.659C249.472 300.419 244.373 302.531 239.057 302.531ZM239.057 267.399C236.067 267.399 233.145 268.286 230.66 269.947C228.175 271.609 226.238 273.97 225.095 276.732C223.952 279.495 223.655 282.534 224.239 285.465C224.824 288.397 226.266 291.089 228.382 293.201C230.497 295.313 233.191 296.75 236.124 297.331C239.057 297.911 242.095 297.608 244.856 296.46C247.616 295.313 249.974 293.373 251.632 290.885C253.289 288.397 254.171 285.473 254.166 282.484C254.159 278.481 252.565 274.644 249.732 271.816C246.899 268.988 243.059 267.399 239.057 267.399Z" fill="#183154"/>
<g opacity="0.4">
<path opacity="0.4" d="M86.9767 117.121C95.6485 117.121 102.679 110.091 102.679 101.419C102.679 92.747 95.6485 85.7173 86.9767 85.7173C78.3046 85.7173 71.2749 92.747 71.2749 101.419C71.2749 110.091 78.3046 117.121 86.9767 117.121Z" fill="white"/>
<path opacity="0.4" d="M68.9049 132.452C73.2407 132.452 76.7558 128.937 76.7558 124.601C76.7558 120.266 73.2407 116.75 68.9049 116.75C64.569 116.75 61.054 120.266 61.054 124.601C61.054 128.937 64.569 132.452 68.9049 132.452Z" fill="white"/>
</g>
<path d="M192.569 169.287H81.4717C73.2869 169.279 65.2361 167.207 58.065 163.262C50.8934 159.316 44.8331 153.626 40.4445 146.717C36.056 139.808 33.4811 131.904 32.9581 123.736C32.4351 115.567 33.981 107.399 37.4527 99.9868C37.7383 99.4067 38.2406 98.962 38.8511 98.7479C39.4612 98.5342 40.1312 98.5683 40.7166 98.8434C41.302 99.1181 41.7564 99.6118 41.9817 100.218C42.2067 100.825 42.185 101.495 41.9211 102.086C39.1876 107.883 37.7795 114.217 37.7982 120.626C37.8113 132.21 42.4152 143.316 50.6014 151.511C58.7874 159.707 69.8883 164.323 81.4717 164.349H192.569C200.674 164.478 208.712 162.87 216.144 159.633C223.576 156.396 230.228 151.606 235.654 145.583C241.08 139.562 245.154 132.448 247.601 124.72C250.049 116.993 250.814 108.831 249.845 100.783C248.876 92.7356 246.195 84.9887 241.982 78.0634C237.77 71.1382 232.123 65.1951 225.422 60.6339C218.722 56.0723 211.122 52.9986 203.135 51.6189C195.147 50.2392 186.957 50.5855 179.114 52.6348L176.843 53.1779L176.152 50.9313C172.087 38.0626 163.572 27.0622 152.133 19.9019C140.694 12.7416 127.079 9.88933 113.728 11.8565C100.377 13.8236 88.163 20.4816 79.2753 30.6368C70.3876 40.792 65.4072 53.7808 65.2268 67.275C65.2219 70.7119 65.5359 74.1419 66.1651 77.5207L66.56 79.4708L64.7084 80.2609C62.3293 81.276 60.0484 82.5075 57.8947 83.9396C57.621 84.1181 57.3149 84.2405 56.9941 84.3C56.6729 84.3591 56.3432 84.3543 56.0243 84.2854C55.705 84.2165 55.4026 84.0852 55.1346 83.8988C54.8666 83.712 54.6383 83.4743 54.4627 83.1988C54.1101 82.6486 53.99 81.9809 54.1288 81.3423C54.2677 80.7038 54.6544 80.146 55.2034 79.792C57.0708 78.5766 59.0172 77.4878 61.0298 76.5329C59.0239 61.4491 62.661 46.156 71.2421 33.59C79.8233 21.0239 92.7441 12.0706 107.523 8.44926C122.303 4.82789 137.899 6.7937 151.317 13.9692C164.736 21.1448 175.031 33.0243 180.225 47.3268C188.735 45.434 197.551 45.3655 206.089 47.1262C214.628 48.8865 222.697 52.4364 229.765 57.5414C236.832 62.6461 242.738 69.1907 247.094 76.7433C251.449 84.2963 254.155 92.6858 255.033 101.36C255.91 110.034 254.941 118.796 252.187 127.068C249.434 135.34 244.959 142.935 239.058 149.353C233.156 155.771 225.962 160.865 217.949 164.301C209.936 167.737 201.286 169.436 192.569 169.287Z" fill="#183154"/>
<path d="M282.977 328.132H339.044C340.642 328.132 342.174 328.767 343.304 329.897C344.434 331.026 345.068 332.559 345.068 334.156H276.953C276.953 332.559 277.588 331.026 278.718 329.897C279.847 328.767 281.379 328.132 282.977 328.132Z" fill="#C5D1D1"/>
<path d="M207.851 328.132H263.918C265.516 328.132 267.048 328.767 268.178 329.897C269.307 331.026 269.942 332.559 269.942 334.156H201.827C201.827 332.559 202.461 331.026 203.591 329.897C204.721 328.767 206.253 328.132 207.851 328.132Z" fill="#C5D1D1"/>
<path d="M486.359 337.242H113.566C107.673 337.242 102.022 334.901 97.8546 330.734C93.6875 326.567 91.3467 320.916 91.3467 315.023V255.055C91.3467 249.162 93.6875 243.51 97.8546 239.343C102.022 235.176 107.673 232.835 113.566 232.835H486.359C492.251 232.835 497.903 235.176 502.072 239.343C506.238 243.51 508.578 249.162 508.578 255.055V314.998C508.581 317.918 508.009 320.81 506.893 323.509C505.778 326.207 504.142 328.66 502.08 330.726C500.017 332.791 497.566 334.43 494.867 335.548C492.172 336.667 489.279 337.242 486.359 337.242ZM113.566 237.723C108.983 237.723 104.587 239.544 101.346 242.785C98.105 246.026 96.2844 250.422 96.2844 255.005V314.949C96.2844 319.532 98.105 323.928 101.346 327.169C104.587 330.41 108.983 332.231 113.566 332.231H486.359C490.944 332.231 495.339 330.41 498.58 327.169C501.822 323.928 503.641 319.532 503.641 314.949V255.055C503.641 250.471 501.822 246.075 498.58 242.835C495.339 239.594 490.944 237.773 486.359 237.773L113.566 237.723Z" fill="#183154"/>
<path d="M235.897 37.9951C238.951 37.9951 241.427 35.519 241.427 32.4648C241.427 29.4105 238.951 26.9346 235.897 26.9346C232.843 26.9346 230.367 29.4105 230.367 32.4648C230.367 35.519 232.843 37.9951 235.897 37.9951Z" fill="#E0F0F5"/>
<path opacity="0.7" d="M201.827 283.151C201.829 286.996 200.569 290.735 198.239 293.795C195.91 296.854 192.64 299.064 188.933 300.084C185.226 301.105 181.287 300.88 177.719 299.445C174.152 298.009 171.155 295.442 169.189 292.137C171.895 293.763 174.994 294.617 178.151 294.606C182.807 294.606 187.271 292.757 190.563 289.465C193.855 286.173 195.704 281.708 195.704 277.053C195.715 273.896 194.862 270.797 193.236 268.091C195.852 269.639 198.02 271.842 199.527 274.482C201.033 277.123 201.826 280.111 201.827 283.151Z" fill="#99394C"/>
<path d="M186.422 302.531C182.457 302.531 178.581 301.355 175.284 299.152C171.987 296.95 169.418 293.819 167.9 290.155C166.383 286.493 165.986 282.462 166.76 278.573C167.533 274.684 169.443 271.112 172.246 268.309C175.05 265.505 178.622 263.596 182.51 262.822C186.399 262.049 190.43 262.446 194.093 263.963C197.756 265.48 200.887 268.05 203.09 271.347C205.293 274.643 206.468 278.519 206.468 282.484C206.468 287.801 204.356 292.9 200.597 296.659C196.837 300.419 191.738 302.531 186.422 302.531ZM186.422 267.399C183.432 267.399 180.51 268.286 178.025 269.947C175.54 271.609 173.603 273.97 172.46 276.732C171.317 279.495 171.02 282.534 171.604 285.465C172.189 288.397 173.631 291.089 175.747 293.201C177.862 295.313 180.556 296.75 183.489 297.331C186.422 297.911 189.46 297.608 192.221 296.46C194.981 295.313 197.339 293.373 198.996 290.885C200.653 288.397 201.536 285.473 201.531 282.484C201.524 278.481 199.93 274.644 197.096 271.816C194.264 268.988 190.424 267.399 186.422 267.399Z" fill="#183154"/>
</g>
</g>
<defs>
<clipPath id="clip0_383_847">
<rect width="600" height="337.243" fill="white"/>
</clipPath>
</defs>
</svg>
